
<svg width="122px" height="87px" viewBox="0 0 122 87" version="1.1" xmlns="http://www.w3.org/2000/svg" xmlns:xlink="http://www.w3.org/1999/xlink">
    <g id="Page-1" stroke="none" stroke-width="1" fill="none" fill-rule="evenodd">
        <g id="userC130" transform="translate(-3.000000, -24.000000)">
            <path d="M72.8721,51.4289 C72.8721,51.4289 75.4637,51.0992 76.8978,51.1614 C78.3319,51.2237 79.0636,51.2211 79.0636,51.2211 L82.3754,51.2867 L84.4495,51.5224 C84.4495,51.5224 82.6474,51.9587 81.788,51.9833 C80.9285,52.0079 76.6124,52.021 76.6124,52.021 C76.6124,52.021 76.1851,51.8949 75.3864,51.8181 C74.5878,51.7413 72.8721,51.4289 72.8721,51.4289 Z" id="Fill-1" fill="#000000"></path>
            <path d="M72.8721,51.4289 C72.8721,51.4289 75.4637,51.0992 76.8978,51.1614 C78.3319,51.2237 79.0636,51.2211 79.0636,51.2211 L82.3754,51.2867 L84.4495,51.5224 C84.4495,51.5224 82.6474,51.9587 81.788,51.9833 C80.9285,52.0079 76.6124,52.021 76.6124,52.021 C76.6124,52.021 76.1851,51.8949 75.3864,51.8181 C74.5878,51.7413 72.8721,51.4289 72.8721,51.4289 Z" id="Stroke-2" stroke="#000000" stroke-width="0.4" stroke-linecap="round" stroke-linejoin="round"></path>
            <path d="M77.2533,60.5481 L77.1606,53.7881 C77.1606,53.7881 77.2345,52.5425 77.4364,52.1716 C77.6382,51.8006 78.0774,50.3236 78.0774,50.3236 C78.0774,50.3236 78.5128,49.5343 78.8017,49.5364954 C79.0907,49.5386 80.057,51.617 80.0244,52.0863 C79.9918,52.5555 80.252,52.8423 80.2913,53.3173 C80.3306,53.7922 80.6618,55.2373 80.5729,55.8968 C80.4839,56.5562 80.4856,58.5792 80.4856,58.5792 C80.4856,58.5792 80.1613,60.3299 80.039,60.8087" id="Fill-3" fill="#000000"></path>
            <path d="M77.2533,60.5481 L77.1606,53.7881 C77.1606,53.7881 77.2345,52.5425 77.4364,52.1716 C77.6382,51.8006 78.0774,50.3236 78.0774,50.3236 C78.0774,50.3236 78.5128,49.5343 78.8017,49.5364954 C79.0907,49.5386 80.057,51.617 80.0244,52.0863 C79.9918,52.5555 80.252,52.8423 80.2913,53.3173 C80.3306,53.7922 80.6618,55.2373 80.5729,55.8968 C80.4839,56.5562 80.4856,58.5792 80.4856,58.5792 C80.4856,58.5792 80.1613,60.3299 80.039,60.8087" id="Stroke-4" stroke="#000000" stroke-width="0.4" stroke-linecap="round" stroke-linejoin="round"></path>
            <path d="M87.8721,51.4289 C87.8721,51.4289 90.4637,51.0992 91.8978,51.1614 C93.3319,51.2237 94.0636,51.2211 94.0636,51.2211 L97.3754,51.2867 L99.4495,51.5224 C99.4495,51.5224 97.6474,51.9587 96.788,51.9833 C95.9285,52.0079 91.6124,52.021 91.6124,52.021 C91.6124,52.021 91.1851,51.8949 90.3864,51.8181 C89.5878,51.7413 87.8721,51.4289 87.8721,51.4289 Z" id="Fill-5" fill="#000000"></path>
            <path d="M87.8721,51.4289 C87.8721,51.4289 90.4637,51.0992 91.8978,51.1614 C93.3319,51.2237 94.0636,51.2211 94.0636,51.2211 L97.3754,51.2867 L99.4495,51.5224 C99.4495,51.5224 97.6474,51.9587 96.788,51.9833 C95.9285,52.0079 91.6124,52.021 91.6124,52.021 C91.6124,52.021 91.1851,51.8949 90.3864,51.8181 C89.5878,51.7413 87.8721,51.4289 87.8721,51.4289 Z" id="Stroke-6" stroke="#000000" stroke-width="0.4" stroke-linecap="round" stroke-linejoin="round"></path>
            <path d="M92.2533,60.5481 L92.1606,53.7881 C92.1606,53.7881 92.2345,52.5425 92.4364,52.1716 C92.6382,51.8006 93.0774,50.3236 93.0774,50.3236 C93.0774,50.3236 93.5128,49.5343 93.8017,49.5364954 C94.0907,49.5386 95.057,51.617 95.0244,52.0863 C94.9918,52.5555 95.252,52.8423 95.2913,53.3173 C95.3306,53.7922 95.6618,55.2373 95.5729,55.8968 C95.4839,56.5562 95.4856,58.5792 95.4856,58.5792 C95.4856,58.5792 95.1613,60.3299 95.039,60.8087" id="Fill-7" fill="#000000"></path>
            <path d="M92.2533,60.5481 L92.1606,53.7881 C92.1606,53.7881 92.2345,52.5425 92.4364,52.1716 C92.6382,51.8006 93.0774,50.3236 93.0774,50.3236 C93.0774,50.3236 93.5128,49.5343 93.8017,49.5364954 C94.0907,49.5386 95.057,51.617 95.0244,52.0863 C94.9918,52.5555 95.252,52.8423 95.2913,53.3173 C95.3306,53.7922 95.6618,55.2373 95.5729,55.8968 C95.4839,56.5562 95.4856,58.5792 95.4856,58.5792 C95.4856,58.5792 95.1613,60.3299 95.039,60.8087" id="Stroke-8" stroke="#000000" stroke-width="0.4" stroke-linecap="round" stroke-linejoin="round"></path>
            <path d="M64.0549,24.748 C64.0549,24.748 65.6541,24.989 65.7009,25.691 C65.7476,26.392 66.7057,29.0694 67.4157,30.1869 C68.1258,31.3045 69.9327,33.2638 70.033,37.717 C70.1332,42.1702 70.3762,54.2119 70.3762,54.2119 C70.3762,54.2119 71.3958,54.3639 71.4807,56.1548 C71.5656,57.9457 71.8116,59.57 71.8116,59.57 C71.8116,59.57 82.6816,59.6786 86.7729,59.8333 C90.8643,59.988 122.722,61.4802 122.722,61.4802 C122.722,61.4802 124.481,60.9935 124.375,64.2851 C124.27,67.5768 124.082,68.5035 124.082,68.5035 L82.7451,73.9896 C82.7451,73.9896 81.361,74.2594 78.7272,74.2376 C76.0935,74.2158 70.3383,74.3189 70.3383,74.3189 L70.2752,83.7169 C70.2752,83.7169 70.2064,87.597 69.8834,90.122 C69.5605,92.6469 69.4211,94.1679 69.4211,94.1679 L85.2551,97.7708 C85.2551,97.7708 87.6722,98.1703 87.6783,100.2794 C87.6844,102.3886 87.3824,102.7324 87.3824,102.7324 C87.3824,102.7324 87.5765,103.4437 85.5102,103.7197 C83.444,103.9958 70.3403,105.2988 70.3403,105.2988 L68.3519,105.5783 C68.3519,105.5783 65.7026,105.8779 65.5847,107.4008 C65.4667,108.9237 65.3773,109.5426 65.3773,109.5426 C65.3773,109.5426 65.2985,110.2648 64.1298,110.3701 C62.9611,110.2648 62.58,109.5447 62.58,109.5447 C62.58,109.5447 62.4906,108.9258 62.3727,107.4029 C62.2547,105.88 59.6054,105.5805 59.6054,105.5805 L57.6171,105.3009 C57.6171,105.3009 44.5133,103.9979 42.4471,103.7219 C40.3809,103.4458 40.575,102.7345 40.575,102.7345 C40.575,102.7345 40.2729,102.3907 40.279,100.2816 C40.2851,98.1724 42.7023,97.7729 42.7023,97.7729 L58.5362,94.17 C58.5362,94.17 58.3968,92.6491 58.0739,90.1241 C57.7509,87.5992 57.6821,83.7191 57.6821,83.7191 L57.619,74.321 C57.619,74.321 51.8639,74.218 49.2301,74.2397 C46.5963,74.2615 45.2122,73.9917 45.2122,73.9917 L3.8751,68.5056 C3.8751,68.5056 3.6876,67.579 3.5821,64.2873 C3.4766,60.9956 5.2356,61.4823 5.2356,61.4823 C5.2356,61.4823 37.0931,59.9902 41.1844,59.8355 C45.2758,59.6807 56.1457,59.5721 56.1457,59.5721 C56.1457,59.5721 56.3917,57.9478 56.4766,56.1569 C56.5615,54.366 57.5812,54.214 57.5812,54.214 C57.5812,54.214 57.8241,42.1724 57.9243,37.7191 C58.0246,33.2659 59.8315,31.3066 60.5416,30.1891 C61.2516,29.0715 62.2097,26.394 62.2565,25.693 C62.3032,24.991 64.0549,24.748 64.0549,24.748 Z" id="Fill-9" fill="#000000"></path>
            <path d="M64.0549,24.748 C64.0549,24.748 65.6541,24.989 65.7009,25.691 C65.7476,26.392 66.7057,29.0694 67.4157,30.1869 C68.1258,31.3045 69.9327,33.2638 70.033,37.717 C70.1332,42.1702 70.3762,54.2119 70.3762,54.2119 C70.3762,54.2119 71.3958,54.3639 71.4807,56.1548 C71.5656,57.9457 71.8116,59.57 71.8116,59.57 C71.8116,59.57 82.6816,59.6786 86.7729,59.8333 C90.8643,59.988 122.722,61.4802 122.722,61.4802 C122.722,61.4802 124.481,60.9935 124.375,64.2851 C124.27,67.5768 124.082,68.5035 124.082,68.5035 L82.7451,73.9896 C82.7451,73.9896 81.361,74.2594 78.7272,74.2376 C76.0935,74.2158 70.3383,74.3189 70.3383,74.3189 L70.2752,83.7169 C70.2752,83.7169 70.2064,87.597 69.8834,90.122 C69.5605,92.6469 69.4211,94.1679 69.4211,94.1679 L85.2551,97.7708 C85.2551,97.7708 87.6722,98.1703 87.6783,100.2794 C87.6844,102.3886 87.3824,102.7324 87.3824,102.7324 C87.3824,102.7324 87.5765,103.4437 85.5102,103.7197 C83.444,103.9958 70.3403,105.2988 70.3403,105.2988 L68.3519,105.5783 C68.3519,105.5783 65.7026,105.8779 65.5847,107.4008 C65.4667,108.9237 65.3773,109.5426 65.3773,109.5426 C65.3773,109.5426 65.2985,110.2648 64.1298,110.3701 C62.9611,110.2648 62.58,109.5447 62.58,109.5447 C62.58,109.5447 62.4906,108.9258 62.3727,107.4029 C62.2547,105.88 59.6054,105.5805 59.6054,105.5805 L57.6171,105.3009 C57.6171,105.3009 44.5133,103.9979 42.4471,103.7219 C40.3809,103.4458 40.575,102.7345 40.575,102.7345 C40.575,102.7345 40.2729,102.3907 40.279,100.2816 C40.2851,98.1724 42.7023,97.7729 42.7023,97.7729 L58.5362,94.17 C58.5362,94.17 58.3968,92.6491 58.0739,90.1241 C57.7509,87.5992 57.6821,83.7191 57.6821,83.7191 L57.619,74.321 C57.619,74.321 51.8639,74.218 49.2301,74.2397 C46.5963,74.2615 45.2122,73.9917 45.2122,73.9917 L3.8751,68.5056 C3.8751,68.5056 3.6876,67.579 3.5821,64.2873 C3.4766,60.9956 5.2356,61.4823 5.2356,61.4823 C5.2356,61.4823 37.0931,59.9902 41.1844,59.8355 C45.2758,59.6807 56.1457,59.5721 56.1457,59.5721 C56.1457,59.5721 56.3917,57.9478 56.4766,56.1569 C56.5615,54.366 57.5812,54.214 57.5812,54.214 C57.5812,54.214 57.8241,42.1724 57.9243,37.7191 C58.0246,33.2659 59.8315,31.3066 60.5416,30.1891 C61.2516,29.0715 62.2097,26.394 62.2565,25.693 C62.3032,24.991 64.0549,24.748 64.0549,24.748 Z" id="Stroke-10" stroke="#000000" stroke-width="0.4" stroke-linecap="round" stroke-linejoin="round"></path>
            <path d="M55.0852,51.4311 C55.0852,51.4311 52.4936,51.1013 51.0596,51.1635 C49.6255,51.2258 48.8937,51.2232 48.8937,51.2232 L45.5819,51.2889 L43.5078,51.5245 C43.5078,51.5245 45.3099,51.9608 46.1694,51.9854 C47.0288,52.01 51.345,52.0231 51.345,52.0231 C51.345,52.0231 51.7722,51.8971 52.5709,51.8202 C53.3695,51.7434 55.0852,51.4311 55.0852,51.4311 Z" id="Fill-11" fill="#000000"></path>
            <path d="M55.0852,51.4311 C55.0852,51.4311 52.4936,51.1013 51.0596,51.1635 C49.6255,51.2258 48.8937,51.2232 48.8937,51.2232 L45.5819,51.2889 L43.5078,51.5245 C43.5078,51.5245 45.3099,51.9608 46.1694,51.9854 C47.0288,52.01 51.345,52.0231 51.345,52.0231 C51.345,52.0231 51.7722,51.8971 52.5709,51.8202 C53.3695,51.7434 55.0852,51.4311 55.0852,51.4311 Z" id="Stroke-12" stroke="#000000" stroke-width="0.4" stroke-linecap="round" stroke-linejoin="round"></path>
            <path d="M50.704,60.5503 L50.7967,53.7902 C50.7967,53.7902 50.7228,52.5446 50.5209,52.1737 C50.3191,51.8028 49.8799,50.3257 49.8799,50.3257 C49.8799,50.3257 49.4445,49.5365 49.1556,49.5385958 C48.8666,49.5407 47.9004,51.6192 47.9329,52.0884 C47.9655,52.5576 47.7053,52.8444 47.666,53.3194 C47.6267,53.7944 47.2955,55.2394 47.3845,55.8989 C47.4734,56.5583 47.4718,58.5813 47.4718,58.5813 C47.4718,58.5813 47.7961,60.332 47.9183,60.8108" id="Fill-13" fill="#000000"></path>
            <path d="M50.704,60.5503 L50.7967,53.7902 C50.7967,53.7902 50.7228,52.5446 50.5209,52.1737 C50.3191,51.8028 49.8799,50.3257 49.8799,50.3257 C49.8799,50.3257 49.4445,49.5365 49.1556,49.5385958 C48.8666,49.5407 47.9004,51.6192 47.9329,52.0884 C47.9655,52.5576 47.7053,52.8444 47.666,53.3194 C47.6267,53.7944 47.2955,55.2394 47.3845,55.8989 C47.4734,56.5583 47.4718,58.5813 47.4718,58.5813 C47.4718,58.5813 47.7961,60.332 47.9183,60.8108" id="Stroke-14" stroke="#000000" stroke-width="0.4" stroke-linecap="round" stroke-linejoin="round"></path>
            <path d="M40.0852,51.4311 C40.0852,51.4311 37.4936,51.1013 36.0596,51.1635 C34.6255,51.2258 33.8937,51.2232 33.8937,51.2232 L30.5819,51.2889 L28.5078,51.5245 C28.5078,51.5245 30.3099,51.9608 31.1694,51.9854 C32.0288,52.01 36.345,52.0231 36.345,52.0231 C36.345,52.0231 36.7722,51.8971 37.5709,51.8202 C38.3695,51.7434 40.0852,51.4311 40.0852,51.4311 Z" id="Fill-15" fill="#000000"></path>
            <path d="M40.0852,51.4311 C40.0852,51.4311 37.4936,51.1013 36.0596,51.1635 C34.6255,51.2258 33.8937,51.2232 33.8937,51.2232 L30.5819,51.2889 L28.5078,51.5245 C28.5078,51.5245 30.3099,51.9608 31.1694,51.9854 C32.0288,52.01 36.345,52.0231 36.345,52.0231 C36.345,52.0231 36.7722,51.8971 37.5709,51.8202 C38.3695,51.7434 40.0852,51.4311 40.0852,51.4311 Z" id="Stroke-16" stroke="#000000" stroke-width="0.4" stroke-linecap="round" stroke-linejoin="round"></path>
            <path d="M35.704,60.5503 L35.7967,53.7902 C35.7967,53.7902 35.7228,52.5446 35.5209,52.1737 C35.3191,51.8028 34.8799,50.3257 34.8799,50.3257 C34.8799,50.3257 34.4445,49.5365 34.1556,49.5385958 C33.8666,49.5407 32.9004,51.6192 32.9329,52.0884 C32.9655,52.5576 32.7053,52.8444 32.666,53.3194 C32.6267,53.7944 32.2955,55.2394 32.3845,55.8989 C32.4734,56.5583 32.4718,58.5813 32.4718,58.5813 C32.4718,58.5813 32.7961,60.332 32.9183,60.8108" id="Fill-17" fill="#000000"></path>
            <path d="M35.704,60.5503 L35.7967,53.7902 C35.7967,53.7902 35.7228,52.5446 35.5209,52.1737 C35.3191,51.8028 34.8799,50.3257 34.8799,50.3257 C34.8799,50.3257 34.4445,49.5365 34.1556,49.5385958 C33.8666,49.5407 32.9004,51.6192 32.9329,52.0884 C32.9655,52.5576 32.7053,52.8444 32.666,53.3194 C32.6267,53.7944 32.2955,55.2394 32.3845,55.8989 C32.4734,56.5583 32.4718,58.5813 32.4718,58.5813 C32.4718,58.5813 32.7961,60.332 32.9183,60.8108" id="Stroke-18" stroke="#000000" stroke-width="0.4" stroke-linecap="round" stroke-linejoin="round"></path>
        </g>
    </g>
</svg>